<?xml version="1.0" encoding="UTF-8" standalone="no"?>
<!-- Generator: Adobe Illustrator 16.0.0, SVG Export Plug-In . SVG Version: 6.00 Build 0)  -->

<svg
   xmlns:dc="http://purl.org/dc/elements/1.1/"
   xmlns:cc="http://creativecommons.org/ns#"
   xmlns:rdf="http://www.w3.org/1999/02/22-rdf-syntax-ns#"
   xmlns:svg="http://www.w3.org/2000/svg"
   xmlns="http://www.w3.org/2000/svg"
   xmlns:sodipodi="http://sodipodi.sourceforge.net/DTD/sodipodi-0.dtd"
   xmlns:inkscape="http://www.inkscape.org/namespaces/inkscape"
   version="1.1"
   id="Capa_1"
   x="0px"
   y="0px"
   width="512.00043"
   height="513.40125"
   viewBox="0 0 47.001039 47.129633"
   xml:space="preserve"
   sodipodi:docname="questionbank.svg"
   inkscape:version="0.92.2 (5c3e80d, 2017-08-06)"><metadata
     id="metadata48"><rdf:RDF><cc:Work
         rdf:about=""><dc:format>image/svg+xml</dc:format><dc:type
           rdf:resource="http://purl.org/dc/dcmitype/StillImage" /></cc:Work></rdf:RDF></metadata><defs
     id="defs46" /><sodipodi:namedview
     pagecolor="#ffffff"
     bordercolor="#666666"
     borderopacity="1"
     objecttolerance="10"
     gridtolerance="10"
     guidetolerance="10"
     inkscape:pageopacity="0"
     inkscape:pageshadow="2"
     inkscape:window-width="1920"
     inkscape:window-height="1001"
     id="namedview44"
     showgrid="true"
     inkscape:zoom="0.65186406"
     inkscape:cx="435.22561"
     inkscape:cy="257.77355"
     inkscape:window-x="-9"
     inkscape:window-y="-9"
     inkscape:window-maximized="1"
     inkscape:current-layer="Capa_1"><inkscape:grid
       type="xygrid"
       id="grid156"
       originx="4.0565657e-005"
       originy="-3.8430045" /></sodipodi:namedview><g
     id="g11"
     style="fill:#0088aa;fill-opacity:1"
     transform="matrix(1,0,0,1.0847864,4.0565657e-5,-0.01247504)"><g
       id="Layer_1_78_"
       style="fill:#0088aa;fill-opacity:1"><g
         id="g8"
         style="fill:#0088aa;fill-opacity:1"><path
           d="m 4.805,37.165 c -1.18,0 -2.136,2.059455 -2.136,3.239455 0,1.18 0.7568458,3.055316 1.9368432,3.053044 l 37.4987438,-0.07222 c 1.179998,-0.0023 1.783938,-1.865728 1.783938,-3.045728 0,-1.18 -0.533525,-3.174546 -1.713525,-3.174546 h -0.533 v -19.22 h 0.533 c 0.591,0 1.067,-0.478 1.067,-1.067 0,-0.589 -0.478,-1.067 -1.067,-1.067 H 4.805 c -0.59,0 -1.067,0.478 -1.067,1.067 0,0.589 0.478,1.067 1.067,1.067 H 5.339 V 37.164 H 4.805 Z M 37.37,17.945 V 37.164 H 30.964 V 17.945 Z m -10.678,0 V 37.164 H 20.286 V 17.945 Z m -17.083,0 h 6.406 V 37.164 H 9.609 Z"
           id="path4"
           style="fill:#0088aa;fill-opacity:1"
           inkscape:connector-curvature="0"
           sodipodi:nodetypes="csssssccssssssccccccccccccccccccc" /><path
           d="m 2.136,13.891 h 42.708 c 0.007,0 0.015,0 0.021,0 1.181,0 2.136,-0.956 2.136,-2.136 0,-0.938 -0.604,-1.733 -1.443,-2.021 L 24.368,0.199 c -0.557,-0.25 -1.194,-0.25 -1.752,0 L 1.26,9.808 c -0.919,0.414 -1.424,1.412 -1.212,2.396 0.211,0.984 1.081,1.687 2.088,1.687 z"
           id="path6"
           style="fill:#0088aa;fill-opacity:1"
           inkscape:connector-curvature="0" /></g></g></g><g
     id="g13"
     transform="translate(4.0565657e-5,3.9716356)" /><g
     id="g15"
     transform="translate(4.0565657e-5,3.9716356)" /><g
     id="g17"
     transform="translate(4.0565657e-5,3.9716356)" /><g
     id="g19"
     transform="translate(4.0565657e-5,3.9716356)" /><g
     id="g21"
     transform="translate(4.0565657e-5,3.9716356)" /><g
     id="g23"
     transform="translate(4.0565657e-5,3.9716356)" /><g
     id="g25"
     transform="translate(4.0565657e-5,3.9716356)" /><g
     id="g27"
     transform="translate(4.0565657e-5,3.9716356)" /><g
     id="g29"
     transform="translate(4.0565657e-5,3.9716356)" /><g
     id="g31"
     transform="translate(4.0565657e-5,3.9716356)" /><g
     id="g33"
     transform="translate(4.0565657e-5,3.9716356)" /><g
     id="g35"
     transform="translate(4.0565657e-5,3.9716356)" /><g
     id="g37"
     transform="translate(4.0565657e-5,3.9716356)" /><g
     id="g39"
     transform="translate(4.0565657e-5,3.9716356)" /><g
     id="g41"
     transform="translate(4.0565657e-5,3.9716356)" /><text
     xml:space="preserve"
     style="font-style:normal;font-weight:normal;font-size:3.6719532px;line-height:1.25;font-family:sans-serif;letter-spacing:0px;word-spacing:0px;fill:#000000;fill-opacity:1;stroke:none;stroke-width:0.09179883"
     x="6.2877588"
     y="13.118629"
     id="text160"><tspan
       sodipodi:role="line"
       id="tspan158"
       x="6.2877588"
       y="13.118629"
       style="font-weight:bold;font-size:5.87512493px;fill:#ffffff;stroke-width:0.09179883">QUESTION</tspan></text>
<text
     xml:space="preserve"
     style="font-style:normal;font-variant:normal;font-weight:bold;font-stretch:normal;font-size:6.85431242px;line-height:1.25;font-family:sans-serif;-inkscape-font-specification:'sans-serif, Bold';font-variant-ligatures:normal;font-variant-caps:normal;font-variant-numeric:normal;font-feature-settings:normal;text-align:start;letter-spacing:0px;word-spacing:0px;writing-mode:lr-tb;text-anchor:start;fill:#ffffff;fill-opacity:1;stroke:none;stroke-width:0.09179882"
     x="13.115151"
     y="46.35598"
     id="text160-9"><tspan
       sodipodi:role="line"
       id="tspan180"
       x="13.115151"
       y="46.35598">BANK</tspan></text>
</svg>